<svg xmlns="http://www.w3.org/2000/svg" viewBox="0 0 64 80" x="0px" y="0px"><g data-name="Layer 22"><path d="M40,44.42V37h2a3.009,3.009,0,0,0,3-3V23a9.015,9.015,0,0,0-8.16-8.96,7,7,0,1,0-9.68,0A9.015,9.015,0,0,0,19,23V34a3.009,3.009,0,0,0,3,3h2v7.42C15.49,45.33,6,48.07,6,53c0,5.85,13.4,9,26,9s26-3.15,26-9C58,48.07,48.51,45.33,40,44.42ZM27,9a5,5,0,1,1,5,5A5,5,0,0,1,27,9ZM22,35a1,1,0,0,1-1-1V23a7.008,7.008,0,0,1,7-7h8a7.008,7.008,0,0,1,7,7V34a1,1,0,0,1-1,1H40V22a1,1,0,0,0-2,0V54H33V36a1,1,0,0,0-2,0V54H26V22a1,1,0,0,0-2,0V35ZM32,60C17.86,60,8,56.31,8,53c0-2.38,5.61-5.43,16-6.57V55a1,1,0,0,0,1,1H39a1,1,0,0,0,1-1V46.43C50.39,47.57,56,50.62,56,53,56,56.31,46.14,60,32,60Z"/></g><text x="0" y="79" fill="#000000" font-size="5px" font-weight="bold" font-family="'Helvetica Neue', Helvetica, Arial-Unicode, Arial, Sans-serif">Created by sripfoto</text><text x="0" y="84" fill="#000000" font-size="5px" font-weight="bold" font-family="'Helvetica Neue', Helvetica, Arial-Unicode, Arial, Sans-serif">from the Noun Project</text></svg>